0
SECTION
2
HEADER
0
ENDSEC
0
SECTION
2
TABLES
0
ENDSEC
0
SECTION
2
BLOCKS
0
ENDSEC
0
SECTION
2
ENTITIES
0
POLYLINE
8
CYCL_TOOTH
66
1
70
1
10
0.0
20
0.0
30
0.0
0
VERTEX
8
CYCL_TOOTH
10
22.44545041
20
1.56580835
30
0.0
0
VERTEX
8
CYCL_TOOTH
10
22.48497236
20
1.56466171
30
0.0
0
VERTEX
8
CYCL_TOOTH
10
22.52419775
20
1.56355286
30
0.0
0
VERTEX
8
CYCL_TOOTH
10
22.56312601
20
1.56248137
30
0.0
0
VERTEX
8
CYCL_TOOTH
10
22.60175656
20
1.56144682
30
0.0
0
VERTEX
8
CYCL_TOOTH
10
22.64008884
20
1.56044877
30
0.0
0
VERTEX
8
CYCL_TOOTH
10
22.67812229
20
1.55948679
30
0.0
0
VERTEX
8
CYCL_TOOTH
10
22.71585634
20
1.55856045
30
0.0
0
VERTEX
8
CYCL_TOOTH
10
22.75329044
20
1.55766932
30
0.0
0
VERTEX
8
CYCL_TOOTH
10
22.79042405
20
1.55681297
30
0.0
0
VERTEX
8
CYCL_TOOTH
10
22.82725662
20
1.55599095
30
0.0
0
VERTEX
8
CYCL_TOOTH
10
22.86378762
20
1.55520284
30
0.0
0
VERTEX
8
CYCL_TOOTH
10
22.90001650
20
1.55444819
30
0.0
0
VERTEX
8
CYCL_TOOTH
10
22.93594274
20
1.55372656
30
0.0
0
VERTEX
8
CYCL_TOOTH
10
22.97156581
20
1.55303751
30
0.0
0
VERTEX
8
CYCL_TOOTH
10
23.00688519
20
1.55238060
30
0.0
0
VERTEX
8
CYCL_TOOTH
10
23.04190037
20
1.55175539
30
0.0
0
VERTEX
8
CYCL_TOOTH
10
23.07661084
20
1.55116143
30
0.0
0
VERTEX
8
CYCL_TOOTH
10
23.11101608
20
1.55059828
30
0.0
0
VERTEX
8
CYCL_TOOTH
10
23.14511560
20
1.55006549
30
0.0
0
VERTEX
8
CYCL_TOOTH
10
23.17890889
20
1.54956261
30
0.0
0
VERTEX
8
CYCL_TOOTH
10
23.21239548
20
1.54908920
30
0.0
0
VERTEX
8
CYCL_TOOTH
10
23.24557486
20
1.54864480
30
0.0
0
VERTEX
8
CYCL_TOOTH
10
23.27844656
20
1.54822896
30
0.0
0
VERTEX
8
CYCL_TOOTH
10
23.31101010
20
1.54784123
30
0.0
0
VERTEX
8
CYCL_TOOTH
10
23.34326500
20
1.54748115
30
0.0
0
VERTEX
8
CYCL_TOOTH
10
23.37521080
20
1.54714828
30
0.0
0
VERTEX
8
CYCL_TOOTH
10
23.40684703
20
1.54684216
30
0.0
0
VERTEX
8
CYCL_TOOTH
10
23.43817323
20
1.54656232
30
0.0
0
VERTEX
8
CYCL_TOOTH
10
23.46918895
20
1.54630832
30
0.0
0
VERTEX
8
CYCL_TOOTH
10
23.49989375
20
1.54607969
30
0.0
0
VERTEX
8
CYCL_TOOTH
10
23.53028716
20
1.54587598
30
0.0
0
VERTEX
8
CYCL_TOOTH
10
23.56036877
20
1.54569672
30
0.0
0
VERTEX
8
CYCL_TOOTH
10
23.59013812
20
1.54554145
30
0.0
0
VERTEX
8
CYCL_TOOTH
10
23.61959479
20
1.54540971
30
0.0
0
VERTEX
8
CYCL_TOOTH
10
23.64873836
20
1.54530104
30
0.0
0
VERTEX
8
CYCL_TOOTH
10
23.67756840
20
1.54521496
30
0.0
0
VERTEX
8
CYCL_TOOTH
10
23.70608450
20
1.54515103
30
0.0
0
VERTEX
8
CYCL_TOOTH
10
23.73428625
20
1.54510876
30
0.0
0
VERTEX
8
CYCL_TOOTH
10
23.76217324
20
1.54508770
30
0.0
0
VERTEX
8
CYCL_TOOTH
10
23.78974507
20
1.54508737
30
0.0
0
VERTEX
8
CYCL_TOOTH
10
23.81700134
20
1.54510731
30
0.0
0
VERTEX
8
CYCL_TOOTH
10
23.84394167
20
1.54514705
30
0.0
0
VERTEX
8
CYCL_TOOTH
10
23.87056566
20
1.54520611
30
0.0
0
VERTEX
8
CYCL_TOOTH
10
23.89687294
20
1.54528402
30
0.0
0
VERTEX
8
CYCL_TOOTH
10
23.92286313
20
1.54538032
30
0.0
0
VERTEX
8
CYCL_TOOTH
10
23.94853585
20
1.54549452
30
0.0
0
VERTEX
8
CYCL_TOOTH
10
23.97389075
20
1.54562617
30
0.0
0
VERTEX
8
CYCL_TOOTH
10
23.99892745
20
1.54577477
30
0.0
0
VERTEX
8
CYCL_TOOTH
10
24.02364560
20
1.54593986
30
0.0
0
VERTEX
8
CYCL_TOOTH
10
24.04804486
20
1.54612095
30
0.0
0
VERTEX
8
CYCL_TOOTH
10
24.07212486
20
1.54631758
30
0.0
0
VERTEX
8
CYCL_TOOTH
10
24.09588528
20
1.54652927
30
0.0
0
VERTEX
8
CYCL_TOOTH
10
24.11932576
20
1.54675553
30
0.0
0
VERTEX
8
CYCL_TOOTH
10
24.14244599
20
1.54699589
30
0.0
0
VERTEX
8
CYCL_TOOTH
10
24.16524564
20
1.54724987
30
0.0
0
VERTEX
8
CYCL_TOOTH
10
24.18772437
20
1.54751698
30
0.0
0
VERTEX
8
CYCL_TOOTH
10
24.20988188
20
1.54779676
30
0.0
0
VERTEX
8
CYCL_TOOTH
10
24.23171785
20
1.54808870
30
0.0
0
VERTEX
8
CYCL_TOOTH
10
24.25323197
20
1.54839235
30
0.0
0
VERTEX
8
CYCL_TOOTH
10
24.27442394
20
1.54870720
30
0.0
0
VERTEX
8
CYCL_TOOTH
10
24.29529347
20
1.54903278
30
0.0
0
VERTEX
8
CYCL_TOOTH
10
24.31584026
20
1.54936860
30
0.0
0
VERTEX
8
CYCL_TOOTH
10
24.33606403
20
1.54971418
30
0.0
0
VERTEX
8
CYCL_TOOTH
10
24.35596448
20
1.55006904
30
0.0
0
VERTEX
8
CYCL_TOOTH
10
24.37554136
20
1.55043268
30
0.0
0
VERTEX
8
CYCL_TOOTH
10
24.39479437
20
1.55080463
30
0.0
0
VERTEX
8
CYCL_TOOTH
10
24.41372326
20
1.55118439
30
0.0
0
VERTEX
8
CYCL_TOOTH
10
24.43232776
20
1.55157148
30
0.0
0
VERTEX
8
CYCL_TOOTH
10
24.45060762
20
1.55196540
30
0.0
0
VERTEX
8
CYCL_TOOTH
10
24.46856258
20
1.55236569
30
0.0
0
VERTEX
8
CYCL_TOOTH
10
24.48619239
20
1.55277183
30
0.0
0
VERTEX
8
CYCL_TOOTH
10
24.50349682
20
1.55318335
30
0.0
0
VERTEX
8
CYCL_TOOTH
10
24.52047563
20
1.55359976
30
0.0
0
VERTEX
8
CYCL_TOOTH
10
24.53712858
20
1.55402056
30
0.0
0
VERTEX
8
CYCL_TOOTH
10
24.55345545
20
1.55444527
30
0.0
0
VERTEX
8
CYCL_TOOTH
10
24.56945601
20
1.55487339
30
0.0
0
VERTEX
8
CYCL_TOOTH
10
24.58513005
20
1.55530443
30
0.0
0
VERTEX
8
CYCL_TOOTH
10
24.60047736
20
1.55573791
30
0.0
0
VERTEX
8
CYCL_TOOTH
10
24.61549773
20
1.55617333
30
0.0
0
VERTEX
8
CYCL_TOOTH
10
24.63019096
20
1.55661020
30
0.0
0
VERTEX
8
CYCL_TOOTH
10
24.64455684
20
1.55704802
30
0.0
0
VERTEX
8
CYCL_TOOTH
10
24.65859520
20
1.55748631
30
0.0
0
VERTEX
8
CYCL_TOOTH
10
24.67230584
20
1.55792456
30
0.0
0
VERTEX
8
CYCL_TOOTH
10
24.68568858
20
1.55836230
30
0.0
0
VERTEX
8
CYCL_TOOTH
10
24.69874325
20
1.55879902
30
0.0
0
VERTEX
8
CYCL_TOOTH
10
24.71146967
20
1.55923423
30
0.0
0
VERTEX
8
CYCL_TOOTH
10
24.72386768
20
1.55966744
30
0.0
0
VERTEX
8
CYCL_TOOTH
10
24.73593712
20
1.56009814
30
0.0
0
VERTEX
8
CYCL_TOOTH
10
24.74767782
20
1.56052586
30
0.0
0
VERTEX
8
CYCL_TOOTH
10
24.75908965
20
1.56095009
30
0.0
0
VERTEX
8
CYCL_TOOTH
10
24.77017245
20
1.56137034
30
0.0
0
VERTEX
8
CYCL_TOOTH
10
24.78092608
20
1.56178611
30
0.0
0
VERTEX
8
CYCL_TOOTH
10
24.79135042
20
1.56219691
30
0.0
0
VERTEX
8
CYCL_TOOTH
10
24.80144532
20
1.56260225
30
0.0
0
VERTEX
8
CYCL_TOOTH
10
24.81121066
20
1.56300162
30
0.0
0
VERTEX
8
CYCL_TOOTH
10
24.82064632
20
1.56339454
30
0.0
0
VERTEX
8
CYCL_TOOTH
10
24.82975219
20
1.56378050
30
0.0
0
VERTEX
8
CYCL_TOOTH
10
24.83852815
20
1.56415902
30
0.0
0
VERTEX
8
CYCL_TOOTH
10
24.84697411
20
1.56452959
30
0.0
0
VERTEX
8
CYCL_TOOTH
10
24.85508996
20
1.56489172
30
0.0
0
VERTEX
8
CYCL_TOOTH
10
24.86287560
20
1.56524492
30
0.0
0
VERTEX
8
CYCL_TOOTH
10
24.87033096
20
1.56558868
30
0.0
0
VERTEX
8
CYCL_TOOTH
10
24.87745593
20
1.56592252
30
0.0
0
VERTEX
8
CYCL_TOOTH
10
24.88425045
20
1.56624594
30
0.0
0
VERTEX
8
CYCL_TOOTH
10
24.89071444
20
1.56655844
30
0.0
0
VERTEX
8
CYCL_TOOTH
10
24.89684782
20
1.56685953
30
0.0
0
VERTEX
8
CYCL_TOOTH
10
24.90265055
20
1.56714871
30
0.0
0
VERTEX
8
CYCL_TOOTH
10
24.90812255
20
1.56742548
30
0.0
0
VERTEX
8
CYCL_TOOTH
10
24.91326377
20
1.56768935
30
0.0
0
VERTEX
8
CYCL_TOOTH
10
24.91807417
20
1.56793983
30
0.0
0
VERTEX
8
CYCL_TOOTH
10
24.92255370
20
1.56817642
30
0.0
0
VERTEX
8
CYCL_TOOTH
10
24.92670232
20
1.56839862
30
0.0
0
VERTEX
8
CYCL_TOOTH
10
24.93052000
20
1.56860594
30
0.0
0
VERTEX
8
CYCL_TOOTH
10
24.93400671
20
1.56879789
30
0.0
0
VERTEX
8
CYCL_TOOTH
10
24.93716243
20
1.56897397
30
0.0
0
VERTEX
8
CYCL_TOOTH
10
24.93998714
20
1.56913368
30
0.0
0
VERTEX
8
CYCL_TOOTH
10
24.94248083
20
1.56927653
30
0.0
0
VERTEX
8
CYCL_TOOTH
10
24.94464349
20
1.56940203
30
0.0
0
VERTEX
8
CYCL_TOOTH
10
24.94647511
20
1.56950968
30
0.0
0
VERTEX
8
CYCL_TOOTH
10
24.94797571
20
1.56959899
30
0.0
0
VERTEX
8
CYCL_TOOTH
10
24.94914528
20
1.56966947
30
0.0
0
VERTEX
8
CYCL_TOOTH
10
24.94998385
20
1.56972062
30
0.0
0
VERTEX
8
CYCL_TOOTH
10
24.95049142
20
1.56975196
30
0.0
0
VERTEX
8
CYCL_TOOTH
10
24.95066802
20
1.56976298
30
0.0
0
VERTEX
8
CYCL_TOOTH
10
24.95066865
20
1.56976302
30
0.0
0
VERTEX
8
CYCL_TOOTH
10
24.95082253
20
1.56977313
30
0.0
0
VERTEX
8
CYCL_TOOTH
10
24.95125299
20
1.56980300
30
0.0
0
VERTEX
8
CYCL_TOOTH
10
24.95195986
20
1.56985484
30
0.0
0
VERTEX
8
CYCL_TOOTH
10
24.95294296
20
1.56993086
30
0.0
0
VERTEX
8
CYCL_TOOTH
10
24.95420211
20
1.57003327
30
0.0
0
VERTEX
8
CYCL_TOOTH
10
24.95573710
20
1.57016428
30
0.0
0
VERTEX
8
CYCL_TOOTH
10
24.95754770
20
1.57032611
30
0.0
0
VERTEX
8
CYCL_TOOTH
10
24.95963368
20
1.57052097
30
0.0
0
VERTEX
8
CYCL_TOOTH
10
24.96199479
20
1.57075105
30
0.0
0
VERTEX
8
CYCL_TOOTH
10
24.96463077
20
1.57101857
30
0.0
0
VERTEX
8
CYCL_TOOTH
10
24.96754134
20
1.57132573
30
0.0
0
VERTEX
8
CYCL_TOOTH
10
24.97072619
20
1.57167474
30
0.0
0
VERTEX
8
CYCL_TOOTH
10
24.97418503
20
1.57206778
30
0.0
0
VERTEX
8
CYCL_TOOTH
10
24.97791753
20
1.57250707
30
0.0
0
VERTEX
8
CYCL_TOOTH
10
24.98192336
20
1.57299479
30
0.0
0
VERTEX
8
CYCL_TOOTH
10
24.98620215
20
1.57353314
30
0.0
0
VERTEX
8
CYCL_TOOTH
10
24.99075354
20
1.57412431
30
0.0
0
VERTEX
8
CYCL_TOOTH
10
24.99557716
20
1.57477049
30
0.0
0
VERTEX
8
CYCL_TOOTH
10
25.00067260
20
1.57547387
30
0.0
0
VERTEX
8
CYCL_TOOTH
10
25.00603946
20
1.57623662
30
0.0
0
VERTEX
8
CYCL_TOOTH
10
25.01167731
20
1.57706093
30
0.0
0
VERTEX
8
CYCL_TOOTH
10
25.01758571
20
1.57794899
30
0.0
0
VERTEX
8
CYCL_TOOTH
10
25.02376420
20
1.57890295
30
0.0
0
VERTEX
8
CYCL_TOOTH
10
25.03021233
20
1.57992500
30
0.0
0
VERTEX
8
CYCL_TOOTH
10
25.03692960
20
1.58101731
30
0.0
0
VERTEX
8
CYCL_TOOTH
10
25.04391552
20
1.58218204
30
0.0
0
VERTEX
8
CYCL_TOOTH
10
25.05116958
20
1.58342135
30
0.0
0
VERTEX
8
CYCL_TOOTH
10
25.05869126
20
1.58473740
30
0.0
0
VERTEX
8
CYCL_TOOTH
10
25.06648000
20
1.58613236
30
0.0
0
VERTEX
8
CYCL_TOOTH
10
25.07453526
20
1.58760837
30
0.0
0
VERTEX
8
CYCL_TOOTH
10
25.08285648
20
1.58916758
30
0.0
0
VERTEX
8
CYCL_TOOTH
10
25.09144306
20
1.59081213
30
0.0
0
VERTEX
8
CYCL_TOOTH
10
25.10029441
20
1.59254418
30
0.0
0
VERTEX
8
CYCL_TOOTH
10
25.10940991
20
1.59436585
30
0.0
0
VERTEX
8
CYCL_TOOTH
10
25.11878896
20
1.59627929
30
0.0
0
VERTEX
8
CYCL_TOOTH
10
25.12843089
20
1.59828661
30
0.0
0
VERTEX
8
CYCL_TOOTH
10
25.13833507
20
1.60038995
30
0.0
0
VERTEX
8
CYCL_TOOTH
10
25.14850082
20
1.60259142
30
0.0
0
VERTEX
8
CYCL_TOOTH
10
25.15892745
20
1.60489315
30
0.0
0
VERTEX
8
CYCL_TOOTH
10
25.16961429
20
1.60729725
30
0.0
0
VERTEX
8
CYCL_TOOTH
10
25.18056060
20
1.60980582
30
0.0
0
VERTEX
8
CYCL_TOOTH
10
25.19176568
20
1.61242097
30
0.0
0
VERTEX
8
CYCL_TOOTH
10
25.20322878
20
1.61514480
30
0.0
0
VERTEX
8
CYCL_TOOTH
10
25.21494915
20
1.61797939
30
0.0
0
VERTEX
8
CYCL_TOOTH
10
25.22692603
20
1.62092685
30
0.0
0
VERTEX
8
CYCL_TOOTH
10
25.23915863
20
1.62398926
30
0.0
0
VERTEX
8
CYCL_TOOTH
10
25.25164616
20
1.62716869
30
0.0
0
VERTEX
8
CYCL_TOOTH
10
25.26438782
20
1.63046721
30
0.0
0
VERTEX
8
CYCL_TOOTH
10
25.27738279
20
1.63388691
30
0.0
0
VERTEX
8
CYCL_TOOTH
10
25.29063022
20
1.63742983
30
0.0
0
VERTEX
8
CYCL_TOOTH
10
25.30412927
20
1.64109805
30
0.0
0
VERTEX
8
CYCL_TOOTH
10
25.31787908
20
1.64489361
30
0.0
0
VERTEX
8
CYCL_TOOTH
10
25.33187877
20
1.64881856
30
0.0
0
VERTEX
8
CYCL_TOOTH
10
25.34612746
20
1.65287494
30
0.0
0
VERTEX
8
CYCL_TOOTH
10
25.36062424
20
1.65706478
30
0.0
0
VERTEX
8
CYCL_TOOTH
10
25.37536819
20
1.66139013
30
0.0
0
VERTEX
8
CYCL_TOOTH
10
25.39035838
20
1.66585300
30
0.0
0
VERTEX
8
CYCL_TOOTH
10
25.40559387
20
1.67045540
30
0.0
0
VERTEX
8
CYCL_TOOTH
10
25.42107371
20
1.67519936
30
0.0
0
VERTEX
8
CYCL_TOOTH
10
25.43679692
20
1.68008688
30
0.0
0
VERTEX
8
CYCL_TOOTH
10
25.45276252
20
1.68511996
30
0.0
0
VERTEX
8
CYCL_TOOTH
10
25.46896951
20
1.69030059
30
0.0
0
VERTEX
8
CYCL_TOOTH
10
25.48541689
20
1.69563076
30
0.0
0
VERTEX
8
CYCL_TOOTH
10
25.50210362
20
1.70111245
30
0.0
0
VERTEX
8
CYCL_TOOTH
10
25.51902868
20
1.70674763
30
0.0
0
VERTEX
8
CYCL_TOOTH
10
25.53619100
20
1.71253827
30
0.0
0
VERTEX
8
CYCL_TOOTH
10
25.55358954
20
1.71848634
30
0.0
0
VERTEX
8
CYCL_TOOTH
10
25.57122321
20
1.72459378
30
0.0
0
VERTEX
8
CYCL_TOOTH
10
25.58909093
20
1.73086254
30
0.0
0
VERTEX
8
CYCL_TOOTH
10
25.60719159
20
1.73729457
30
0.0
0
VERTEX
8
CYCL_TOOTH
10
25.62552408
20
1.74389179
30
0.0
0
VERTEX
8
CYCL_TOOTH
10
25.64408727
20
1.75065614
30
0.0
0
VERTEX
8
CYCL_TOOTH
10
25.66288001
20
1.75758952
30
0.0
0
VERTEX
8
CYCL_TOOTH
10
25.68190117
20
1.76469385
30
0.0
0
VERTEX
8
CYCL_TOOTH
10
25.70114956
20
1.77197104
30
0.0
0
VERTEX
8
CYCL_TOOTH
10
25.72062402
20
1.77942299
30
0.0
0
VERTEX
8
CYCL_TOOTH
10
25.74032335
20
1.78705157
30
0.0
0
VERTEX
8
CYCL_TOOTH
10
25.76024634
20
1.79485867
30
0.0
0
VERTEX
8
CYCL_TOOTH
10
25.78039178
20
1.80284617
30
0.0
0
VERTEX
8
CYCL_TOOTH
10
25.80075845
20
1.81101592
30
0.0
0
VERTEX
8
CYCL_TOOTH
10
25.82134509
20
1.81936980
30
0.0
0
VERTEX
8
CYCL_TOOTH
10
25.84215045
20
1.82790964
30
0.0
0
VERTEX
8
CYCL_TOOTH
10
25.86317328
20
1.83663729
30
0.0
0
VERTEX
8
CYCL_TOOTH
10
25.88441228
20
1.84555459
30
0.0
0
VERTEX
8
CYCL_TOOTH
10
25.90586618
20
1.85466336
30
0.0
0
VERTEX
8
CYCL_TOOTH
10
25.92753366
20
1.86396541
30
0.0
0
VERTEX
8
CYCL_TOOTH
10
25.94941341
20
1.87346255
30
0.0
0
VERTEX
8
CYCL_TOOTH
10
25.97150410
20
1.88315659
30
0.0
0
VERTEX
8
CYCL_TOOTH
10
25.99380440
20
1.89304932
30
0.0
0
VERTEX
8
CYCL_TOOTH
10
26.01631295
20
1.90314252
30
0.0
0
VERTEX
8
CYCL_TOOTH
10
26.03902838
20
1.91343796
30
0.0
0
VERTEX
8
CYCL_TOOTH
10
26.06194934
20
1.92393742
30
0.0
0
VERTEX
8
CYCL_TOOTH
10
26.08507442
20
1.93464264
30
0.0
0
VERTEX
8
CYCL_TOOTH
10
26.10840222
20
1.94555539
30
0.0
0
VERTEX
8
CYCL_TOOTH
10
26.13193134
20
1.95667738
30
0.0
0
VERTEX
8
CYCL_TOOTH
10
26.15566036
20
1.96801037
30
0.0
0
VERTEX
8
CYCL_TOOTH
10
26.17958784
20
1.97955606
30
0.0
0
VERTEX
8
CYCL_TOOTH
10
26.20371234
20
1.99131617
30
0.0
0
VERTEX
8
CYCL_TOOTH
10
26.22803239
20
2.00329240
30
0.0
0
VERTEX
8
CYCL_TOOTH
10
26.25254653
20
2.01548646
30
0.0
0
VERTEX
8
CYCL_TOOTH
10
26.27725329
20
2.02790001
30
0.0
0
VERTEX
8
CYCL_TOOTH
10
26.30215116
20
2.04053473
30
0.0
0
VERTEX
8
CYCL_TOOTH
10
26.32723866
20
2.05339230
30
0.0
0
VERTEX
8
CYCL_TOOTH
10
26.35251425
20
2.06647436
30
0.0
0
VERTEX
8
CYCL_TOOTH
10
26.37797643
20
2.07978256
30
0.0
0
VERTEX
8
CYCL_TOOTH
10
26.40362365
20
2.09331854
30
0.0
0
VERTEX
8
CYCL_TOOTH
10
26.42945436
20
2.10708393
30
0.0
0
VERTEX
8
CYCL_TOOTH
10
26.45546702
20
2.12108033
30
0.0
0
VERTEX
8
CYCL_TOOTH
10
26.48166004
20
2.13530937
30
0.0
0
VERTEX
8
CYCL_TOOTH
10
26.50803186
20
2.14977262
30
0.0
0
VERTEX
8
CYCL_TOOTH
10
26.53458088
20
2.16447168
30
0.0
0
VERTEX
8
CYCL_TOOTH
10
26.56130550
20
2.17940813
30
0.0
0
VERTEX
8
CYCL_TOOTH
10
26.58820410
20
2.19458353
30
0.0
0
VERTEX
8
CYCL_TOOTH
10
26.61527508
20
2.20999944
30
0.0
0
VERTEX
8
CYCL_TOOTH
10
26.64251678
20
2.22565740
30
0.0
0
VERTEX
8
CYCL_TOOTH
10
26.66992758
20
2.24155894
30
0.0
0
VERTEX
8
CYCL_TOOTH
10
26.69750582
20
2.25770560
30
0.0
0
VERTEX
8
CYCL_TOOTH
10
26.72524983
20
2.27409888
30
0.0
0
VERTEX
8
CYCL_TOOTH
10
26.75315795
20
2.29074029
30
0.0
0
VERTEX
8
CYCL_TOOTH
10
26.78122847
20
2.30763132
30
0.0
0
VERTEX
8
CYCL_TOOTH
10
26.80945972
20
2.32477345
30
0.0
0
VERTEX
8
CYCL_TOOTH
10
26.83784999
20
2.34216816
30
0.0
0
VERTEX
8
CYCL_TOOTH
10
26.86639756
20
2.35981689
30
0.0
0
VERTEX
8
CYCL_TOOTH
10
26.89510071
20
2.37772111
30
0.0
0
VERTEX
8
CYCL_TOOTH
10
26.90186249
20
2.29995537
30
0.0
0
VERTEX
8
CYCL_TOOTH
10
26.90839941
20
2.22217040
30
0.0
0
VERTEX
8
CYCL_TOOTH
10
26.91471142
20
2.14436686
30
0.0
0
VERTEX
8
CYCL_TOOTH
10
26.92079847
20
2.06654540
30
0.0
0
VERTEX
8
CYCL_TOOTH
10
26.92666050
20
1.98870666
30
0.0
0
VERTEX
8
CYCL_TOOTH
10
26.93229748
20
1.91085131
30
0.0
0
VERTEX
8
CYCL_TOOTH
10
26.93770934
20
1.83297998
30
0.0
0
VERTEX
8
CYCL_TOOTH
10
26.94289605
20
1.75509333
30
0.0
0
VERTEX
8
CYCL_TOOTH
10
26.94785756
20
1.67719200
30
0.0
0
VERTEX
8
CYCL_TOOTH
10
26.95259383
20
1.59927667
30
0.0
0
VERTEX
8
CYCL_TOOTH
10
26.95710482
20
1.52134796
30
0.0
0
VERTEX
8
CYCL_TOOTH
10
26.96139050
20
1.44340654
30
0.0
0
VERTEX
8
CYCL_TOOTH
10
26.96545082
20
1.36545305
30
0.0
0
VERTEX
8
CYCL_TOOTH
10
26.96928576
20
1.28748815
30
0.0
0
VERTEX
8
CYCL_TOOTH
10
26.97289528
20
1.20951249
30
0.0
0
VERTEX
8
CYCL_TOOTH
10
26.97627934
20
1.13152672
30
0.0
0
VERTEX
8
CYCL_TOOTH
10
26.97943794
20
1.05353149
30
0.0
0
VERTEX
8
CYCL_TOOTH
10
26.98237103
20
0.97552746
30
0.0
0
VERTEX
8
CYCL_TOOTH
10
26.98507859
20
0.89751527
30
0.0
0
VERTEX
8
CYCL_TOOTH
10
26.98756060
20
0.81949558
30
0.0
0
VERTEX
8
CYCL_TOOTH
10
26.98981704
20
0.74146904
30
0.0
0
VERTEX
8
CYCL_TOOTH
10
26.99184789
20
0.66343630
30
0.0
0
VERTEX
8
CYCL_TOOTH
10
26.99365313
20
0.58539802
30
0.0
0
VERTEX
8
CYCL_TOOTH
10
26.99523275
20
0.50735485
30
0.0
0
VERTEX
8
CYCL_TOOTH
10
26.99658673
20
0.42930743
30
0.0
0
VERTEX
8
CYCL_TOOTH
10
26.99771507
20
0.35125643
30
0.0
0
VERTEX
8
CYCL_TOOTH
10
26.99861775
20
0.27320249
30
0.0
0
VERTEX
8
CYCL_TOOTH
10
26.99929477
20
0.19514627
30
0.0
0
VERTEX
8
CYCL_TOOTH
10
26.99974612
20
0.11708841
30
0.0
0
VERTEX
8
CYCL_TOOTH
10
26.99997179
20
0.03902958
30
0.0
0
VERTEX
8
CYCL_TOOTH
10
26.99997179
20
-0.03902958
30
0.0
0
VERTEX
8
CYCL_TOOTH
10
26.99974612
20
-0.11708841
30
0.0
0
VERTEX
8
CYCL_TOOTH
10
26.99929477
20
-0.19514627
30
0.0
0
VERTEX
8
CYCL_TOOTH
10
26.99861775
20
-0.27320249
30
0.0
0
VERTEX
8
CYCL_TOOTH
10
26.99771507
20
-0.35125643
30
0.0
0
VERTEX
8
CYCL_TOOTH
10
26.99658673
20
-0.42930743
30
0.0
0
VERTEX
8
CYCL_TOOTH
10
26.99523275
20
-0.50735485
30
0.0
0
VERTEX
8
CYCL_TOOTH
10
26.99365313
20
-0.58539802
30
0.0
0
VERTEX
8
CYCL_TOOTH
10
26.99184789
20
-0.66343630
30
0.0
0
VERTEX
8
CYCL_TOOTH
10
26.98981704
20
-0.74146904
30
0.0
0
VERTEX
8
CYCL_TOOTH
10
26.98756060
20
-0.81949558
30
0.0
0
VERTEX
8
CYCL_TOOTH
10
26.98507859
20
-0.89751527
30
0.0
0
VERTEX
8
CYCL_TOOTH
10
26.98237103
20
-0.97552746
30
0.0
0
VERTEX
8
CYCL_TOOTH
10
26.97943794
20
-1.05353149
30
0.0
0
VERTEX
8
CYCL_TOOTH
10
26.97627934
20
-1.13152672
30
0.0
0
VERTEX
8
CYCL_TOOTH
10
26.97289528
20
-1.20951249
30
0.0
0
VERTEX
8
CYCL_TOOTH
10
26.96928576
20
-1.28748815
30
0.0
0
VERTEX
8
CYCL_TOOTH
10
26.96545082
20
-1.36545305
30
0.0
0
VERTEX
8
CYCL_TOOTH
10
26.96139050
20
-1.44340654
30
0.0
0
VERTEX
8
CYCL_TOOTH
10
26.95710482
20
-1.52134796
30
0.0
0
VERTEX
8
CYCL_TOOTH
10
26.95259383
20
-1.59927667
30
0.0
0
VERTEX
8
CYCL_TOOTH
10
26.94785756
20
-1.67719200
30
0.0
0
VERTEX
8
CYCL_TOOTH
10
26.94289605
20
-1.75509333
30
0.0
0
VERTEX
8
CYCL_TOOTH
10
26.93770934
20
-1.83297998
30
0.0
0
VERTEX
8
CYCL_TOOTH
10
26.93229748
20
-1.91085131
30
0.0
0
VERTEX
8
CYCL_TOOTH
10
26.92666050
20
-1.98870666
30
0.0
0
VERTEX
8
CYCL_TOOTH
10
26.92079847
20
-2.06654540
30
0.0
0
VERTEX
8
CYCL_TOOTH
10
26.91471142
20
-2.14436686
30
0.0
0
VERTEX
8
CYCL_TOOTH
10
26.90839941
20
-2.22217040
30
0.0
0
VERTEX
8
CYCL_TOOTH
10
26.90186249
20
-2.29995537
30
0.0
0
VERTEX
8
CYCL_TOOTH
10
26.89510071
20
-2.37772111
30
0.0
0
VERTEX
8
CYCL_TOOTH
10
26.86639756
20
-2.35981689
30
0.0
0
VERTEX
8
CYCL_TOOTH
10
26.83784999
20
-2.34216816
30
0.0
0
VERTEX
8
CYCL_TOOTH
10
26.80945972
20
-2.32477345
30
0.0
0
VERTEX
8
CYCL_TOOTH
10
26.78122847
20
-2.30763132
30
0.0
0
VERTEX
8
CYCL_TOOTH
10
26.75315795
20
-2.29074029
30
0.0
0
VERTEX
8
CYCL_TOOTH
10
26.72524983
20
-2.27409888
30
0.0
0
VERTEX
8
CYCL_TOOTH
10
26.69750582
20
-2.25770560
30
0.0
0
VERTEX
8
CYCL_TOOTH
10
26.66992758
20
-2.24155894
30
0.0
0
VERTEX
8
CYCL_TOOTH
10
26.64251678
20
-2.22565740
30
0.0
0
VERTEX
8
CYCL_TOOTH
10
26.61527508
20
-2.20999944
30
0.0
0
VERTEX
8
CYCL_TOOTH
10
26.58820410
20
-2.19458353
30
0.0
0
VERTEX
8
CYCL_TOOTH
10
26.56130550
20
-2.17940813
30
0.0
0
VERTEX
8
CYCL_TOOTH
10
26.53458088
20
-2.16447168
30
0.0
0
VERTEX
8
CYCL_TOOTH
10
26.50803186
20
-2.14977262
30
0.0
0
VERTEX
8
CYCL_TOOTH
10
26.48166004
20
-2.13530937
30
0.0
0
VERTEX
8
CYCL_TOOTH
10
26.45546702
20
-2.12108033
30
0.0
0
VERTEX
8
CYCL_TOOTH
10
26.42945436
20
-2.10708393
30
0.0
0
VERTEX
8
CYCL_TOOTH
10
26.40362365
20
-2.09331854
30
0.0
0
VERTEX
8
CYCL_TOOTH
10
26.37797643
20
-2.07978256
30
0.0
0
VERTEX
8
CYCL_TOOTH
10
26.35251425
20
-2.06647436
30
0.0
0
VERTEX
8
CYCL_TOOTH
10
26.32723866
20
-2.05339230
30
0.0
0
VERTEX
8
CYCL_TOOTH
10
26.30215116
20
-2.04053473
30
0.0
0
VERTEX
8
CYCL_TOOTH
10
26.27725329
20
-2.02790001
30
0.0
0
VERTEX
8
CYCL_TOOTH
10
26.25254653
20
-2.01548646
30
0.0
0
VERTEX
8
CYCL_TOOTH
10
26.22803239
20
-2.00329240
30
0.0
0
VERTEX
8
CYCL_TOOTH
10
26.20371234
20
-1.99131617
30
0.0
0
VERTEX
8
CYCL_TOOTH
10
26.17958784
20
-1.97955606
30
0.0
0
VERTEX
8
CYCL_TOOTH
10
26.15566036
20
-1.96801037
30
0.0
0
VERTEX
8
CYCL_TOOTH
10
26.13193134
20
-1.95667738
30
0.0
0
VERTEX
8
CYCL_TOOTH
10
26.10840222
20
-1.94555539
30
0.0
0
VERTEX
8
CYCL_TOOTH
10
26.08507442
20
-1.93464264
30
0.0
0
VERTEX
8
CYCL_TOOTH
10
26.06194934
20
-1.92393742
30
0.0
0
VERTEX
8
CYCL_TOOTH
10
26.03902838
20
-1.91343796
30
0.0
0
VERTEX
8
CYCL_TOOTH
10
26.01631295
20
-1.90314252
30
0.0
0
VERTEX
8
CYCL_TOOTH
10
25.99380440
20
-1.89304932
30
0.0
0
VERTEX
8
CYCL_TOOTH
10
25.97150410
20
-1.88315659
30
0.0
0
VERTEX
8
CYCL_TOOTH
10
25.94941341
20
-1.87346255
30
0.0
0
VERTEX
8
CYCL_TOOTH
10
25.92753366
20
-1.86396541
30
0.0
0
VERTEX
8
CYCL_TOOTH
10
25.90586618
20
-1.85466336
30
0.0
0
VERTEX
8
CYCL_TOOTH
10
25.88441228
20
-1.84555459
30
0.0
0
VERTEX
8
CYCL_TOOTH
10
25.86317328
20
-1.83663729
30
0.0
0
VERTEX
8
CYCL_TOOTH
10
25.84215045
20
-1.82790964
30
0.0
0
VERTEX
8
CYCL_TOOTH
10
25.82134509
20
-1.81936980
30
0.0
0
VERTEX
8
CYCL_TOOTH
10
25.80075845
20
-1.81101592
30
0.0
0
VERTEX
8
CYCL_TOOTH
10
25.78039178
20
-1.80284617
30
0.0
0
VERTEX
8
CYCL_TOOTH
10
25.76024634
20
-1.79485867
30
0.0
0
VERTEX
8
CYCL_TOOTH
10
25.74032335
20
-1.78705157
30
0.0
0
VERTEX
8
CYCL_TOOTH
10
25.72062402
20
-1.77942299
30
0.0
0
VERTEX
8
CYCL_TOOTH
10
25.70114956
20
-1.77197104
30
0.0
0
VERTEX
8
CYCL_TOOTH
10
25.68190117
20
-1.76469385
30
0.0
0
VERTEX
8
CYCL_TOOTH
10
25.66288001
20
-1.75758952
30
0.0
0
VERTEX
8
CYCL_TOOTH
10
25.64408727
20
-1.75065614
30
0.0
0
VERTEX
8
CYCL_TOOTH
10
25.62552408
20
-1.74389179
30
0.0
0
VERTEX
8
CYCL_TOOTH
10
25.60719159
20
-1.73729457
30
0.0
0
VERTEX
8
CYCL_TOOTH
10
25.58909093
20
-1.73086254
30
0.0
0
VERTEX
8
CYCL_TOOTH
10
25.57122321
20
-1.72459378
30
0.0
0
VERTEX
8
CYCL_TOOTH
10
25.55358954
20
-1.71848634
30
0.0
0
VERTEX
8
CYCL_TOOTH
10
25.53619100
20
-1.71253827
30
0.0
0
VERTEX
8
CYCL_TOOTH
10
25.51902868
20
-1.70674763
30
0.0
0
VERTEX
8
CYCL_TOOTH
10
25.50210362
20
-1.70111245
30
0.0
0
VERTEX
8
CYCL_TOOTH
10
25.48541689
20
-1.69563076
30
0.0
0
VERTEX
8
CYCL_TOOTH
10
25.46896951
20
-1.69030059
30
0.0
0
VERTEX
8
CYCL_TOOTH
10
25.45276252
20
-1.68511996
30
0.0
0
VERTEX
8
CYCL_TOOTH
10
25.43679692
20
-1.68008688
30
0.0
0
VERTEX
8
CYCL_TOOTH
10
25.42107371
20
-1.67519936
30
0.0
0
VERTEX
8
CYCL_TOOTH
10
25.40559387
20
-1.67045540
30
0.0
0
VERTEX
8
CYCL_TOOTH
10
25.39035838
20
-1.66585300
30
0.0
0
VERTEX
8
CYCL_TOOTH
10
25.37536819
20
-1.66139013
30
0.0
0
VERTEX
8
CYCL_TOOTH
10
25.36062424
20
-1.65706478
30
0.0
0
VERTEX
8
CYCL_TOOTH
10
25.34612746
20
-1.65287494
30
0.0
0
VERTEX
8
CYCL_TOOTH
10
25.33187877
20
-1.64881856
30
0.0
0
VERTEX
8
CYCL_TOOTH
10
25.31787908
20
-1.64489361
30
0.0
0
VERTEX
8
CYCL_TOOTH
10
25.30412927
20
-1.64109805
30
0.0
0
VERTEX
8
CYCL_TOOTH
10
25.29063022
20
-1.63742983
30
0.0
0
VERTEX
8
CYCL_TOOTH
10
25.27738279
20
-1.63388691
30
0.0
0
VERTEX
8
CYCL_TOOTH
10
25.26438782
20
-1.63046721
30
0.0
0
VERTEX
8
CYCL_TOOTH
10
25.25164616
20
-1.62716869
30
0.0
0
VERTEX
8
CYCL_TOOTH
10
25.23915863
20
-1.62398926
30
0.0
0
VERTEX
8
CYCL_TOOTH
10
25.22692603
20
-1.62092685
30
0.0
0
VERTEX
8
CYCL_TOOTH
10
25.21494915
20
-1.61797939
30
0.0
0
VERTEX
8
CYCL_TOOTH
10
25.20322878
20
-1.61514480
30
0.0
0
VERTEX
8
CYCL_TOOTH
10
25.19176568
20
-1.61242097
30
0.0
0
VERTEX
8
CYCL_TOOTH
10
25.18056060
20
-1.60980582
30
0.0
0
VERTEX
8
CYCL_TOOTH
10
25.16961429
20
-1.60729725
30
0.0
0
VERTEX
8
CYCL_TOOTH
10
25.15892745
20
-1.60489315
30
0.0
0
VERTEX
8
CYCL_TOOTH
10
25.14850082
20
-1.60259142
30
0.0
0
VERTEX
8
CYCL_TOOTH
10
25.13833507
20
-1.60038995
30
0.0
0
VERTEX
8
CYCL_TOOTH
10
25.12843089
20
-1.59828661
30
0.0
0
VERTEX
8
CYCL_TOOTH
10
25.11878896
20
-1.59627929
30
0.0
0
VERTEX
8
CYCL_TOOTH
10
25.10940991
20
-1.59436585
30
0.0
0
VERTEX
8
CYCL_TOOTH
10
25.10029441
20
-1.59254418
30
0.0
0
VERTEX
8
CYCL_TOOTH
10
25.09144306
20
-1.59081213
30
0.0
0
VERTEX
8
CYCL_TOOTH
10
25.08285648
20
-1.58916758
30
0.0
0
VERTEX
8
CYCL_TOOTH
10
25.07453526
20
-1.58760837
30
0.0
0
VERTEX
8
CYCL_TOOTH
10
25.06648000
20
-1.58613236
30
0.0
0
VERTEX
8
CYCL_TOOTH
10
25.05869126
20
-1.58473740
30
0.0
0
VERTEX
8
CYCL_TOOTH
10
25.05116958
20
-1.58342135
30
0.0
0
VERTEX
8
CYCL_TOOTH
10
25.04391552
20
-1.58218204
30
0.0
0
VERTEX
8
CYCL_TOOTH
10
25.03692960
20
-1.58101731
30
0.0
0
VERTEX
8
CYCL_TOOTH
10
25.03021233
20
-1.57992500
30
0.0
0
VERTEX
8
CYCL_TOOTH
10
25.02376420
20
-1.57890295
30
0.0
0
VERTEX
8
CYCL_TOOTH
10
25.01758571
20
-1.57794899
30
0.0
0
VERTEX
8
CYCL_TOOTH
10
25.01167731
20
-1.57706093
30
0.0
0
VERTEX
8
CYCL_TOOTH
10
25.00603946
20
-1.57623662
30
0.0
0
VERTEX
8
CYCL_TOOTH
10
25.00067260
20
-1.57547387
30
0.0
0
VERTEX
8
CYCL_TOOTH
10
24.99557716
20
-1.57477049
30
0.0
0
VERTEX
8
CYCL_TOOTH
10
24.99075354
20
-1.57412431
30
0.0
0
VERTEX
8
CYCL_TOOTH
10
24.98620215
20
-1.57353314
30
0.0
0
VERTEX
8
CYCL_TOOTH
10
24.98192336
20
-1.57299479
30
0.0
0
VERTEX
8
CYCL_TOOTH
10
24.97791753
20
-1.57250707
30
0.0
0
VERTEX
8
CYCL_TOOTH
10
24.97418503
20
-1.57206778
30
0.0
0
VERTEX
8
CYCL_TOOTH
10
24.97072619
20
-1.57167474
30
0.0
0
VERTEX
8
CYCL_TOOTH
10
24.96754134
20
-1.57132573
30
0.0
0
VERTEX
8
CYCL_TOOTH
10
24.96463077
20
-1.57101857
30
0.0
0
VERTEX
8
CYCL_TOOTH
10
24.96199479
20
-1.57075105
30
0.0
0
VERTEX
8
CYCL_TOOTH
10
24.95963368
20
-1.57052097
30
0.0
0
VERTEX
8
CYCL_TOOTH
10
24.95754770
20
-1.57032611
30
0.0
0
VERTEX
8
CYCL_TOOTH
10
24.95573710
20
-1.57016428
30
0.0
0
VERTEX
8
CYCL_TOOTH
10
24.95420211
20
-1.57003327
30
0.0
0
VERTEX
8
CYCL_TOOTH
10
24.95294296
20
-1.56993086
30
0.0
0
VERTEX
8
CYCL_TOOTH
10
24.95195986
20
-1.56985484
30
0.0
0
VERTEX
8
CYCL_TOOTH
10
24.95125299
20
-1.56980300
30
0.0
0
VERTEX
8
CYCL_TOOTH
10
24.95082253
20
-1.56977313
30
0.0
0
VERTEX
8
CYCL_TOOTH
10
24.95066865
20
-1.56976302
30
0.0
0
VERTEX
8
CYCL_TOOTH
10
24.95066802
20
-1.56976298
30
0.0
0
VERTEX
8
CYCL_TOOTH
10
24.95049142
20
-1.56975196
30
0.0
0
VERTEX
8
CYCL_TOOTH
10
24.94998385
20
-1.56972062
30
0.0
0
VERTEX
8
CYCL_TOOTH
10
24.94914528
20
-1.56966947
30
0.0
0
VERTEX
8
CYCL_TOOTH
10
24.94797571
20
-1.56959899
30
0.0
0
VERTEX
8
CYCL_TOOTH
10
24.94647511
20
-1.56950968
30
0.0
0
VERTEX
8
CYCL_TOOTH
10
24.94464349
20
-1.56940203
30
0.0
0
VERTEX
8
CYCL_TOOTH
10
24.94248083
20
-1.56927653
30
0.0
0
VERTEX
8
CYCL_TOOTH
10
24.93998714
20
-1.56913368
30
0.0
0
VERTEX
8
CYCL_TOOTH
10
24.93716243
20
-1.56897397
30
0.0
0
VERTEX
8
CYCL_TOOTH
10
24.93400671
20
-1.56879789
30
0.0
0
VERTEX
8
CYCL_TOOTH
10
24.93052000
20
-1.56860594
30
0.0
0
VERTEX
8
CYCL_TOOTH
10
24.92670232
20
-1.56839862
30
0.0
0
VERTEX
8
CYCL_TOOTH
10
24.92255370
20
-1.56817642
30
0.0
0
VERTEX
8
CYCL_TOOTH
10
24.91807417
20
-1.56793983
30
0.0
0
VERTEX
8
CYCL_TOOTH
10
24.91326377
20
-1.56768935
30
0.0
0
VERTEX
8
CYCL_TOOTH
10
24.90812255
20
-1.56742548
30
0.0
0
VERTEX
8
CYCL_TOOTH
10
24.90265055
20
-1.56714871
30
0.0
0
VERTEX
8
CYCL_TOOTH
10
24.89684782
20
-1.56685953
30
0.0
0
VERTEX
8
CYCL_TOOTH
10
24.89071444
20
-1.56655844
30
0.0
0
VERTEX
8
CYCL_TOOTH
10
24.88425045
20
-1.56624594
30
0.0
0
VERTEX
8
CYCL_TOOTH
10
24.87745593
20
-1.56592252
30
0.0
0
VERTEX
8
CYCL_TOOTH
10
24.87033096
20
-1.56558868
30
0.0
0
VERTEX
8
CYCL_TOOTH
10
24.86287560
20
-1.56524492
30
0.0
0
VERTEX
8
CYCL_TOOTH
10
24.85508996
20
-1.56489172
30
0.0
0
VERTEX
8
CYCL_TOOTH
10
24.84697411
20
-1.56452959
30
0.0
0
VERTEX
8
CYCL_TOOTH
10
24.83852815
20
-1.56415902
30
0.0
0
VERTEX
8
CYCL_TOOTH
10
24.82975219
20
-1.56378050
30
0.0
0
VERTEX
8
CYCL_TOOTH
10
24.82064632
20
-1.56339454
30
0.0
0
VERTEX
8
CYCL_TOOTH
10
24.81121066
20
-1.56300162
30
0.0
0
VERTEX
8
CYCL_TOOTH
10
24.80144532
20
-1.56260225
30
0.0
0
VERTEX
8
CYCL_TOOTH
10
24.79135042
20
-1.56219691
30
0.0
0
VERTEX
8
CYCL_TOOTH
10
24.78092608
20
-1.56178611
30
0.0
0
VERTEX
8
CYCL_TOOTH
10
24.77017245
20
-1.56137034
30
0.0
0
VERTEX
8
CYCL_TOOTH
10
24.75908965
20
-1.56095009
30
0.0
0
VERTEX
8
CYCL_TOOTH
10
24.74767782
20
-1.56052586
30
0.0
0
VERTEX
8
CYCL_TOOTH
10
24.73593712
20
-1.56009814
30
0.0
0
VERTEX
8
CYCL_TOOTH
10
24.72386768
20
-1.55966744
30
0.0
0
VERTEX
8
CYCL_TOOTH
10
24.71146967
20
-1.55923423
30
0.0
0
VERTEX
8
CYCL_TOOTH
10
24.69874325
20
-1.55879902
30
0.0
0
VERTEX
8
CYCL_TOOTH
10
24.68568858
20
-1.55836230
30
0.0
0
VERTEX
8
CYCL_TOOTH
10
24.67230584
20
-1.55792456
30
0.0
0
VERTEX
8
CYCL_TOOTH
10
24.65859520
20
-1.55748631
30
0.0
0
VERTEX
8
CYCL_TOOTH
10
24.64455684
20
-1.55704802
30
0.0
0
VERTEX
8
CYCL_TOOTH
10
24.63019096
20
-1.55661020
30
0.0
0
VERTEX
8
CYCL_TOOTH
10
24.61549773
20
-1.55617333
30
0.0
0
VERTEX
8
CYCL_TOOTH
10
24.60047736
20
-1.55573791
30
0.0
0
VERTEX
8
CYCL_TOOTH
10
24.58513005
20
-1.55530443
30
0.0
0
VERTEX
8
CYCL_TOOTH
10
24.56945601
20
-1.55487339
30
0.0
0
VERTEX
8
CYCL_TOOTH
10
24.55345545
20
-1.55444527
30
0.0
0
VERTEX
8
CYCL_TOOTH
10
24.53712858
20
-1.55402056
30
0.0
0
VERTEX
8
CYCL_TOOTH
10
24.52047563
20
-1.55359976
30
0.0
0
VERTEX
8
CYCL_TOOTH
10
24.50349682
20
-1.55318335
30
0.0
0
VERTEX
8
CYCL_TOOTH
10
24.48619239
20
-1.55277183
30
0.0
0
VERTEX
8
CYCL_TOOTH
10
24.46856258
20
-1.55236569
30
0.0
0
VERTEX
8
CYCL_TOOTH
10
24.45060762
20
-1.55196540
30
0.0
0
VERTEX
8
CYCL_TOOTH
10
24.43232776
20
-1.55157148
30
0.0
0
VERTEX
8
CYCL_TOOTH
10
24.41372326
20
-1.55118439
30
0.0
0
VERTEX
8
CYCL_TOOTH
10
24.39479437
20
-1.55080463
30
0.0
0
VERTEX
8
CYCL_TOOTH
10
24.37554136
20
-1.55043268
30
0.0
0
VERTEX
8
CYCL_TOOTH
10
24.35596448
20
-1.55006904
30
0.0
0
VERTEX
8
CYCL_TOOTH
10
24.33606403
20
-1.54971418
30
0.0
0
VERTEX
8
CYCL_TOOTH
10
24.31584026
20
-1.54936860
30
0.0
0
VERTEX
8
CYCL_TOOTH
10
24.29529347
20
-1.54903278
30
0.0
0
VERTEX
8
CYCL_TOOTH
10
24.27442394
20
-1.54870720
30
0.0
0
VERTEX
8
CYCL_TOOTH
10
24.25323197
20
-1.54839235
30
0.0
0
VERTEX
8
CYCL_TOOTH
10
24.23171785
20
-1.54808870
30
0.0
0
VERTEX
8
CYCL_TOOTH
10
24.20988188
20
-1.54779676
30
0.0
0
VERTEX
8
CYCL_TOOTH
10
24.18772437
20
-1.54751698
30
0.0
0
VERTEX
8
CYCL_TOOTH
10
24.16524564
20
-1.54724987
30
0.0
0
VERTEX
8
CYCL_TOOTH
10
24.14244599
20
-1.54699589
30
0.0
0
VERTEX
8
CYCL_TOOTH
10
24.11932576
20
-1.54675553
30
0.0
0
VERTEX
8
CYCL_TOOTH
10
24.09588528
20
-1.54652927
30
0.0
0
VERTEX
8
CYCL_TOOTH
10
24.07212486
20
-1.54631758
30
0.0
0
VERTEX
8
CYCL_TOOTH
10
24.04804486
20
-1.54612095
30
0.0
0
VERTEX
8
CYCL_TOOTH
10
24.02364560
20
-1.54593986
30
0.0
0
VERTEX
8
CYCL_TOOTH
10
23.99892745
20
-1.54577477
30
0.0
0
VERTEX
8
CYCL_TOOTH
10
23.97389075
20
-1.54562617
30
0.0
0
VERTEX
8
CYCL_TOOTH
10
23.94853585
20
-1.54549452
30
0.0
0
VERTEX
8
CYCL_TOOTH
10
23.92286313
20
-1.54538032
30
0.0
0
VERTEX
8
CYCL_TOOTH
10
23.89687294
20
-1.54528402
30
0.0
0
VERTEX
8
CYCL_TOOTH
10
23.87056566
20
-1.54520611
30
0.0
0
VERTEX
8
CYCL_TOOTH
10
23.84394167
20
-1.54514705
30
0.0
0
VERTEX
8
CYCL_TOOTH
10
23.81700134
20
-1.54510731
30
0.0
0
VERTEX
8
CYCL_TOOTH
10
23.78974507
20
-1.54508737
30
0.0
0
VERTEX
8
CYCL_TOOTH
10
23.76217324
20
-1.54508770
30
0.0
0
VERTEX
8
CYCL_TOOTH
10
23.73428625
20
-1.54510876
30
0.0
0
VERTEX
8
CYCL_TOOTH
10
23.70608450
20
-1.54515103
30
0.0
0
VERTEX
8
CYCL_TOOTH
10
23.67756840
20
-1.54521496
30
0.0
0
VERTEX
8
CYCL_TOOTH
10
23.64873836
20
-1.54530104
30
0.0
0
VERTEX
8
CYCL_TOOTH
10
23.61959479
20
-1.54540971
30
0.0
0
VERTEX
8
CYCL_TOOTH
10
23.59013812
20
-1.54554145
30
0.0
0
VERTEX
8
CYCL_TOOTH
10
23.56036877
20
-1.54569672
30
0.0
0
VERTEX
8
CYCL_TOOTH
10
23.53028716
20
-1.54587598
30
0.0
0
VERTEX
8
CYCL_TOOTH
10
23.49989375
20
-1.54607969
30
0.0
0
VERTEX
8
CYCL_TOOTH
10
23.46918895
20
-1.54630832
30
0.0
0
VERTEX
8
CYCL_TOOTH
10
23.43817323
20
-1.54656232
30
0.0
0
VERTEX
8
CYCL_TOOTH
10
23.40684703
20
-1.54684216
30
0.0
0
VERTEX
8
CYCL_TOOTH
10
23.37521080
20
-1.54714828
30
0.0
0
VERTEX
8
CYCL_TOOTH
10
23.34326500
20
-1.54748115
30
0.0
0
VERTEX
8
CYCL_TOOTH
10
23.31101010
20
-1.54784123
30
0.0
0
VERTEX
8
CYCL_TOOTH
10
23.27844656
20
-1.54822896
30
0.0
0
VERTEX
8
CYCL_TOOTH
10
23.24557486
20
-1.54864480
30
0.0
0
VERTEX
8
CYCL_TOOTH
10
23.21239548
20
-1.54908920
30
0.0
0
VERTEX
8
CYCL_TOOTH
10
23.17890889
20
-1.54956261
30
0.0
0
VERTEX
8
CYCL_TOOTH
10
23.14511560
20
-1.55006549
30
0.0
0
VERTEX
8
CYCL_TOOTH
10
23.11101608
20
-1.55059828
30
0.0
0
VERTEX
8
CYCL_TOOTH
10
23.07661084
20
-1.55116143
30
0.0
0
VERTEX
8
CYCL_TOOTH
10
23.04190037
20
-1.55175539
30
0.0
0
VERTEX
8
CYCL_TOOTH
10
23.00688519
20
-1.55238060
30
0.0
0
VERTEX
8
CYCL_TOOTH
10
22.97156581
20
-1.55303751
30
0.0
0
VERTEX
8
CYCL_TOOTH
10
22.93594274
20
-1.55372656
30
0.0
0
VERTEX
8
CYCL_TOOTH
10
22.90001650
20
-1.55444819
30
0.0
0
VERTEX
8
CYCL_TOOTH
10
22.86378762
20
-1.55520284
30
0.0
0
VERTEX
8
CYCL_TOOTH
10
22.82725662
20
-1.55599095
30
0.0
0
VERTEX
8
CYCL_TOOTH
10
22.79042405
20
-1.55681297
30
0.0
0
VERTEX
8
CYCL_TOOTH
10
22.75329044
20
-1.55766932
30
0.0
0
VERTEX
8
CYCL_TOOTH
10
22.71585634
20
-1.55856045
30
0.0
0
VERTEX
8
CYCL_TOOTH
10
22.67812229
20
-1.55948679
30
0.0
0
VERTEX
8
CYCL_TOOTH
10
22.64008884
20
-1.56044877
30
0.0
0
VERTEX
8
CYCL_TOOTH
10
22.60175656
20
-1.56144682
30
0.0
0
VERTEX
8
CYCL_TOOTH
10
22.56312601
20
-1.56248137
30
0.0
0
VERTEX
8
CYCL_TOOTH
10
22.52419775
20
-1.56355286
30
0.0
0
VERTEX
8
CYCL_TOOTH
10
22.48497236
20
-1.56466171
30
0.0
0
VERTEX
8
CYCL_TOOTH
10
22.44545041
20
-1.56580835
30
0.0
0
VERTEX
8
CYCL_TOOTH
10
22.44896746
20
-1.51454937
30
0.0
0
VERTEX
8
CYCL_TOOTH
10
22.45236746
20
-1.46328249
30
0.0
0
VERTEX
8
CYCL_TOOTH
10
22.45565037
20
-1.41200799
30
0.0
0
VERTEX
8
CYCL_TOOTH
10
22.45881619
20
-1.36072612
30
0.0
0
VERTEX
8
CYCL_TOOTH
10
22.46186489
20
-1.30943715
30
0.0
0
VERTEX
8
CYCL_TOOTH
10
22.46479647
20
-1.25814136
30
0.0
0
VERTEX
8
CYCL_TOOTH
10
22.46761090
20
-1.20683900
30
0.0
0
VERTEX
8
CYCL_TOOTH
10
22.47030818
20
-1.15553035
30
0.0
0
VERTEX
8
CYCL_TOOTH
10
22.47288828
20
-1.10421568
30
0.0
0
VERTEX
8
CYCL_TOOTH
10
22.47535120
20
-1.05289525
30
0.0
0
VERTEX
8
CYCL_TOOTH
10
22.47769692
20
-1.00156933
30
0.0
0
VERTEX
8
CYCL_TOOTH
10
22.47992543
20
-0.95023818
30
0.0
0
VERTEX
8
CYCL_TOOTH
10
22.48203672
20
-0.89890208
30
0.0
0
VERTEX
8
CYCL_TOOTH
10
22.48403077
20
-0.84756130
30
0.0
0
VERTEX
8
CYCL_TOOTH
10
22.48590759
20
-0.79621609
30
0.0
0
VERTEX
8
CYCL_TOOTH
10
22.48766714
20
-0.74486673
30
0.0
0
VERTEX
8
CYCL_TOOTH
10
22.48930944
20
-0.69351349
30
0.0
0
VERTEX
8
CYCL_TOOTH
10
22.49083446
20
-0.64215663
30
0.0
0
VERTEX
8
CYCL_TOOTH
10
22.49224221
20
-0.59079643
30
0.0
0
VERTEX
8
CYCL_TOOTH
10
22.49353267
20
-0.53943314
30
0.0
0
VERTEX
8
CYCL_TOOTH
10
22.49470583
20
-0.48806704
30
0.0
0
VERTEX
8
CYCL_TOOTH
10
22.49576170
20
-0.43669839
30
0.0
0
VERTEX
8
CYCL_TOOTH
10
22.49670026
20
-0.38532747
30
0.0
0
VERTEX
8
CYCL_TOOTH
10
22.49752152
20
-0.33395454
30
0.0
0
VERTEX
8
CYCL_TOOTH
10
22.49822545
20
-0.28257986
30
0.0
0
VERTEX
8
CYCL_TOOTH
10
22.49881208
20
-0.23120371
30
0.0
0
VERTEX
8
CYCL_TOOTH
10
22.49928138
20
-0.17982636
30
0.0
0
VERTEX
8
CYCL_TOOTH
10
22.49963335
20
-0.12844807
30
0.0
0
VERTEX
8
CYCL_TOOTH
10
22.49986801
20
-0.07706911
30
0.0
0
VERTEX
8
CYCL_TOOTH
10
22.49998533
20
-0.02568975
30
0.0
0
VERTEX
8
CYCL_TOOTH
10
22.49998533
20
0.02568975
30
0.0
0
VERTEX
8
CYCL_TOOTH
10
22.49986801
20
0.07706911
30
0.0
0
VERTEX
8
CYCL_TOOTH
10
22.49963335
20
0.12844807
30
0.0
0
VERTEX
8
CYCL_TOOTH
10
22.49928138
20
0.17982636
30
0.0
0
VERTEX
8
CYCL_TOOTH
10
22.49881208
20
0.23120371
30
0.0
0
VERTEX
8
CYCL_TOOTH
10
22.49822545
20
0.28257986
30
0.0
0
VERTEX
8
CYCL_TOOTH
10
22.49752152
20
0.33395454
30
0.0
0
VERTEX
8
CYCL_TOOTH
10
22.49670026
20
0.38532747
30
0.0
0
VERTEX
8
CYCL_TOOTH
10
22.49576170
20
0.43669839
30
0.0
0
VERTEX
8
CYCL_TOOTH
10
22.49470583
20
0.48806704
30
0.0
0
VERTEX
8
CYCL_TOOTH
10
22.49353267
20
0.53943314
30
0.0
0
VERTEX
8
CYCL_TOOTH
10
22.49224221
20
0.59079643
30
0.0
0
VERTEX
8
CYCL_TOOTH
10
22.49083446
20
0.64215663
30
0.0
0
VERTEX
8
CYCL_TOOTH
10
22.48930944
20
0.69351349
30
0.0
0
VERTEX
8
CYCL_TOOTH
10
22.48766714
20
0.74486673
30
0.0
0
VERTEX
8
CYCL_TOOTH
10
22.48590759
20
0.79621609
30
0.0
0
VERTEX
8
CYCL_TOOTH
10
22.48403077
20
0.84756130
30
0.0
0
VERTEX
8
CYCL_TOOTH
10
22.48203672
20
0.89890208
30
0.0
0
VERTEX
8
CYCL_TOOTH
10
22.47992543
20
0.95023818
30
0.0
0
VERTEX
8
CYCL_TOOTH
10
22.47769692
20
1.00156933
30
0.0
0
VERTEX
8
CYCL_TOOTH
10
22.47535120
20
1.05289525
30
0.0
0
VERTEX
8
CYCL_TOOTH
10
22.47288828
20
1.10421568
30
0.0
0
VERTEX
8
CYCL_TOOTH
10
22.47030818
20
1.15553035
30
0.0
0
VERTEX
8
CYCL_TOOTH
10
22.46761090
20
1.20683900
30
0.0
0
VERTEX
8
CYCL_TOOTH
10
22.46479647
20
1.25814136
30
0.0
0
VERTEX
8
CYCL_TOOTH
10
22.46186489
20
1.30943715
30
0.0
0
VERTEX
8
CYCL_TOOTH
10
22.45881619
20
1.36072612
30
0.0
0
VERTEX
8
CYCL_TOOTH
10
22.45565037
20
1.41200799
30
0.0
0
VERTEX
8
CYCL_TOOTH
10
22.45236746
20
1.46328249
30
0.0
0
VERTEX
8
CYCL_TOOTH
10
22.44896746
20
1.51454937
30
0.0
0
VERTEX
8
CYCL_TOOTH
10
22.44545041
20
1.56580835
30
0.0
0
SEQEND
8
CYCL_TOOTH
0
ENDSEC
0
EOF
